<svg width="505" height="187" viewBox="0 0 505 187" fill="none" xmlns="http://www.w3.org/2000/svg">
<path d="M0.0175787 154.5V120L79.0176 6.99999H126.768V117.5H147.268V154.5H126.768V187H84.0176V154.5H0.0175787ZM87.0176 54L45.0176 117.5H87.0176V54ZM180.707 93.25C180.707 64.5833 186.207 42 197.207 25.5C208.374 8.99999 226.29 0.749984 250.957 0.749984C275.624 0.749984 293.457 8.99999 304.457 25.5C315.624 42 321.207 64.5833 321.207 93.25C321.207 122.25 315.624 145 304.457 161.5C293.457 178 275.624 186.25 250.957 186.25C226.29 186.25 208.374 178 197.207 161.5C186.207 145 180.707 122.25 180.707 93.25ZM279.207 93.25C279.207 76.4167 277.374 63.5 273.707 54.5C270.04 45.3333 262.457 40.75 250.957 40.75C239.457 40.75 231.874 45.3333 228.207 54.5C224.54 63.5 222.707 76.4167 222.707 93.25C222.707 104.583 223.374 114 224.707 121.5C226.04 128.833 228.707 134.833 232.707 139.5C236.874 144 242.957 146.25 250.957 146.25C258.957 146.25 264.957 144 268.957 139.5C273.124 134.833 275.874 128.833 277.207 121.5C278.54 114 279.207 104.583 279.207 93.25ZM357.293 154.5V120L436.293 6.99999H484.043V117.5H504.543V154.5H484.043V187H441.293V154.5H357.293ZM444.293 54L402.293 117.5H444.293V54Z" fill="url(#paint0_linear_321_347)"/>
<defs>
<linearGradient id="paint0_linear_321_347" x1="251" y1="-100" x2="251" y2="298" gradientUnits="userSpaceOnUse">
<stop stop-color="#00D2CB"/>
<stop offset="1" stop-color="#453598"/>
</linearGradient>
</defs>
</svg>
