<svg xmlns="http://www.w3.org/2000/svg" viewBox="0 0 729.19 500"><defs><style>.cls-1{isolation:isolate;}.cls-2{fill:#282246;}.cls-3{fill:#fff;}.cls-4{mix-blend-mode:screen;}</style></defs><title>lessonAsset 1</title><g class="cls-1"><g id="Layer_2" data-name="Layer 2"><g id="Layer_1-2" data-name="Layer 1"><rect class="cls-2" width="729.19" height="500"/><path class="cls-3" d="M283,253.9a30.42,30.42,0,0,1,6.77-19.36,3.39,3.39,0,0,0-.29-4.53,3.45,3.45,0,0,0-5.12.28,37.26,37.26,0,0,0-8.24,23.61,37.84,37.84,0,0,0,8.46,24,3.43,3.43,0,0,0,5.13.1h0a3.44,3.44,0,0,0,.13-4.54A31,31,0,0,1,283,253.9Z"/><g class="cls-4"><path class="cls-3" d="M284.38,233.14a3.44,3.44,0,0,1,5.82.73,3.41,3.41,0,0,0-.7-3.86,3.45,3.45,0,0,0-5.12.28,37.26,37.26,0,0,0-8.24,23.61c0,.46,0,.91,0,1.36A37.19,37.19,0,0,1,284.38,233.14Z"/></g><path class="cls-3" d="M267.68,253.84A42.82,42.82,0,0,1,277,227a3.44,3.44,0,0,0-.3-4.68h0a3.42,3.42,0,0,0-5,.31,50.39,50.39,0,0,0,.23,62.81,3.43,3.43,0,0,0,5,.28h0a3.45,3.45,0,0,0,.27-4.69A42.9,42.9,0,0,1,267.68,253.84Z"/><g class="cls-4"><path class="cls-3" d="M271.67,225.45a3.42,3.42,0,0,1,5-.31h0a3.47,3.47,0,0,1,.76,1,3.41,3.41,0,0,0-.76-3.9h0a3.42,3.42,0,0,0-5,.31,49.64,49.64,0,0,0-10.87,31.24c0,.48,0,.95,0,1.42A49.57,49.57,0,0,1,271.67,225.45Z"/></g><path class="cls-3" d="M444.59,230.13a3.43,3.43,0,0,0-5.13-.1h0a3.44,3.44,0,0,0-.13,4.54,31,31,0,0,1,6.84,19.52,30.37,30.37,0,0,1-6.77,19.35,3.4,3.4,0,0,0,.29,4.54,3.45,3.45,0,0,0,5.12-.28,37.26,37.26,0,0,0,8.24-23.61A37.84,37.84,0,0,0,444.59,230.13Z"/><g class="cls-4"><path class="cls-3" d="M439.46,232.89h0a3.43,3.43,0,0,1,5.13.1,37.78,37.78,0,0,1,8.43,22.6c0-.5,0-1,0-1.49a37.84,37.84,0,0,0-8.46-24,3.43,3.43,0,0,0-5.13-.1h0a3.41,3.41,0,0,0-.6,3.76A3.29,3.29,0,0,1,439.46,232.89Z"/></g><path class="cls-3" d="M457.29,222.58a3.42,3.42,0,0,0-5-.28h0A3.46,3.46,0,0,0,452,227a43.51,43.51,0,0,1,.2,54,3.46,3.46,0,0,0,.3,4.69h0a3.42,3.42,0,0,0,5-.31,50.39,50.39,0,0,0-.23-62.81Z"/><g class="cls-4"><path class="cls-3" d="M452.29,225.16h0a3.43,3.43,0,0,1,5,.28,49.71,49.71,0,0,1,11.07,30.15c0-.48,0-1,0-1.44a49.74,49.74,0,0,0-11.1-31.56,3.42,3.42,0,0,0-5-.28h0a3.43,3.43,0,0,0-.75,3.89A3.58,3.58,0,0,1,452.29,225.16Z"/></g><path class="cls-3" d="M345.56,291.05H327.73a1.9,1.9,0,0,0-1.9,1.9v5.22A38.12,38.12,0,0,0,364,336.29h1.91a36.21,36.21,0,0,0,36.21-36.21V293a1.9,1.9,0,0,0-1.9-1.9H382.58a5.64,5.64,0,0,1-5.7-4.95,5.49,5.49,0,0,1,5.46-6h15.92a3.81,3.81,0,0,0,0-7.62H382.58a5.65,5.65,0,0,1-5.7-5,5.49,5.49,0,0,1,5.46-6h15.92a3.81,3.81,0,1,0,0-7.62H382.58a5.65,5.65,0,0,1-5.7-5,5.49,5.49,0,0,1,5.46-6h17.83a1.9,1.9,0,0,0,1.9-1.9v-5.21A38.12,38.12,0,0,0,364,197.62h0a38.12,38.12,0,0,0-38.12,38.12V241a1.9,1.9,0,0,0,1.9,1.9h17.83a5.5,5.5,0,0,1,5.47,6,5.67,5.67,0,0,1-5.71,5H329.64a3.81,3.81,0,1,0,0,7.62h15.68a5.67,5.67,0,0,1,5.71,5,5.5,5.5,0,0,1-5.47,6H329.64a3.81,3.81,0,0,0,0,7.62h15.68A5.67,5.67,0,0,1,351,285,5.49,5.49,0,0,1,345.56,291.05Z"/><path class="cls-3" d="M418.91,234.15v-6.58c0-30-23.7-55-53.66-55.62a54.77,54.77,0,0,0-55.77,54.7v7.5A20,20,0,0,0,292.05,254h0a20,20,0,0,0,20,20h0a6.33,6.33,0,0,0,6.33-6.33V226.65a45.89,45.89,0,0,1,46.94-45.82c25,.59,44.73,21.65,44.73,46.68v40.08a6.34,6.34,0,0,0,6.34,6.33h0a20,20,0,0,0,20-20h0A20,20,0,0,0,418.91,234.15Z"/><g class="cls-4"><path class="cls-3" d="M309.48,235.47v-1.32A20,20,0,0,0,292.05,254h0c0,.21,0,.42,0,.63A20,20,0,0,1,309.48,235.47Z"/><path class="cls-3" d="M365.25,173.27c30,.57,53.66,25.66,53.66,55.62v-1.32c0-30-23.7-55-53.66-55.62a54.77,54.77,0,0,0-55.77,54.7V228A54.77,54.77,0,0,1,365.25,173.27Z"/><path class="cls-3" d="M418.91,234.15v1.32a20,20,0,0,1,17.4,19.11c0-.21,0-.42,0-.63h0A20,20,0,0,0,418.91,234.15Z"/></g><path class="cls-3" d="M378,435.45l-.12-1.6A179.88,179.88,0,1,0,187.18,282.2l-1.59.25A181.5,181.5,0,1,1,378,435.45Z"/><path class="cls-3" d="M190,281.61a3.64,3.64,0,1,1-4.12-3.08A3.63,3.63,0,0,1,190,281.61Z"/><path class="cls-3" d="M377.85,430.94a3.64,3.64,0,1,0,3.93,3.32A3.64,3.64,0,0,0,377.85,430.94Z"/><path class="cls-3" d="M365,405.81a151.38,151.38,0,1,1,24.84-300.69l-.27,1.59a149.79,149.79,0,1,0,113.7,90.4l1.49-.62A151.37,151.37,0,0,1,373,405.6C370.31,405.74,367.66,405.81,365,405.81Z"/><path class="cls-3" d="M390.09,102.36a3.64,3.64,0,1,1-4.17,3A3.64,3.64,0,0,1,390.09,102.36Z"/><path class="cls-3" d="M507.4,195.62a3.64,3.64,0,1,0-2,4.74A3.64,3.64,0,0,0,507.4,195.62Z"/></g></g></g></svg>